<svg width="720" height="8" viewBox="0 0 720 8" fill="none" xmlns="http://www.w3.org/2000/svg">
<line x1="324" y1="4.5" y2="4.5" stroke="#D8D8D8"/>
<line x1="720" y1="4.5" x2="396" y2="4.5" stroke="#D8D8D8"/>
<path d="M340.5 4C340.5 2.067 342.067 0.5 344 0.5C345.933 0.5 347.5 2.067 347.5 4C347.5 5.933 345.933 7.5 344 7.5C342.067 7.5 340.5 5.933 340.5 4Z" stroke="#D8D8D8"/>
<path d="M356.5 4C356.5 2.067 358.067 0.5 360 0.5C361.933 0.5 363.5 2.067 363.5 4C363.5 5.933 361.933 7.5 360 7.5C358.067 7.5 356.5 5.933 356.5 4Z" stroke="#D8D8D8"/>
<path d="M372.5 4C372.5 2.067 374.067 0.5 376 0.5C377.933 0.5 379.5 2.067 379.5 4C379.5 5.933 377.933 7.5 376 7.5C374.067 7.5 372.5 5.933 372.5 4Z" stroke="#D8D8D8"/>
</svg>
